<?xml version="1.0" encoding="utf-8"?>
<!-- Generator: Adobe Illustrator 13.0.0, SVG Export Plug-In . SVG Version: 6.00 Build 14948)  -->
<!DOCTYPE svg PUBLIC "-//W3C//DTD SVG 1.1//EN" "http://www.w3.org/Graphics/SVG/1.1/DTD/svg11.dtd">
<svg version="1.1" id="Layer_1" xmlns="http://www.w3.org/2000/svg" xmlns:xlink="http://www.w3.org/1999/xlink" x="0px" y="0px"
	 width="612px" height="792px" viewBox="0 0 612 792" enable-background="new 0 0 612 792" xml:space="preserve">
<title  id="simpleicons-stackoverflow-icon">Stack Overflow icon</title>
<path fill="#FFFFFF" stroke="#231F20" d="M484.143,647.558V484.256h54.417V702H47.022V484.256h54.315v163.302H484.143z
	 M155.831,593.141h273.844v-54.493H155.831V593.141L155.831,593.141z M162.435,469.414l267.24,55.82l11.501-52.785l-267.189-55.769
	L162.435,469.414L162.435,469.414z M197.089,340.486l247.478,115.516l23.026-49.726L220.09,290.762l-23.001,49.368V340.486
	L197.089,340.486z M266.322,218.469l209.533,174.803l34.654-41.31L301.002,177.21l-34.425,41.233L266.322,218.469L266.322,218.469z
	 M401.65,90l-44.522,32.997l163.327,219.402l44.523-32.997L401.6,90H401.65L401.65,90z"/>
</svg>
